<svg width="100%" viewBox="0 0 400 380" xmlns="http://www.w3.org/2000/svg">
  <!-- Sky gradient background -->
  <rect x="0" y="0" width="400" height="200" fill="#87CEEB"/>
  <rect x="0" y="100" width="400" height="100" fill="#B8E4F5"/>
  
  <!-- Sun -->
  <circle cx="340" cy="50" r="30" fill="#FFEE44"/>
  <circle cx="340" cy="50" r="25" fill="#F5C842"/>
  
  <!-- Clouds -->
  <g fill="white" opacity="0.9">
    <ellipse cx="80" cy="45" rx="30" ry="15"/>
    <ellipse cx="65" cy="35" rx="20" ry="12"/>
    <ellipse cx="95" cy="38" rx="18" ry="10"/>
    <ellipse cx="280" cy="70" rx="25" ry="12"/>
    <ellipse cx="265" cy="62" rx="15" ry="10"/>
  </g>
  
  <!-- Grass -->
  <rect x="0" y="180" width="400" height="200" fill="#7EC850"/>
  <rect x="0" y="200" width="400" height="180" fill="#5CA83A"/>
  
  <!-- Grass blades detail -->
  <g stroke="#4A9030" stroke-width="2" stroke-linecap="round">
    <path d="M20 200 Q25 185 22 175" fill="none"/>
    <path d="M50 200 Q48 188 55 178" fill="none"/>
    <path d="M380 200 Q375 185 382 175" fill="none"/>
    <path d="M350 200 Q355 190 348 180" fill="none"/>
    <path d="M100 200 Q105 190 98 182" fill="none"/>
    <path d="M300 200 Q295 188 302 178" fill="none"/>
  </g>
  
  <!-- Charcoal Grill (left side) -->
  <!-- Grill legs -->
  <rect x="70" y="280" width="8" height="80" fill="#2C1A0E" rx="2"/>
  <rect x="202" y="280" width="8" height="80" fill="#2C1A0E" rx="2"/>
  <!-- Cross bar -->
  <rect x="65" y="310" width="150" height="6" fill="#2C1A0E" rx="2"/>
  <!-- Bottom shelf -->
  <rect x="80" y="330" width="120" height="8" fill="#3A2515" rx="2"/>
  <!-- Wheels -->
  <circle cx="78" cy="355" r="12" fill="#2C1A0E"/>
  <circle cx="78" cy="355" r="6" fill="#444"/>
  <circle cx="202" cy="355" r="12" fill="#2C1A0E"/>
  <circle cx="202" cy="355" r="6" fill="#444"/>
  <!-- Grill bowl -->
  <ellipse cx="140" cy="275" rx="85" ry="28" fill="#1a1a1a"/>
  <ellipse cx="140" cy="268" rx="80" ry="24" fill="#2d2d2d"/>
  <!-- Charcoal glow -->
  <ellipse cx="140" cy="262" rx="65" ry="16" fill="#FF6B35" opacity="0.6"/>
  <ellipse cx="140" cy="260" rx="55" ry="13" fill="#FF4500" opacity="0.4"/>
  <!-- Grill grate -->
  <g stroke="#555" stroke-width="3">
    <line x1="70" y1="255" x2="210" y2="255"/>
    <line x1="75" y1="262" x2="205" y2="262"/>
    <line x1="80" y1="269" x2="200" y2="269"/>
  </g>
  
  <!-- Hot dogs on grill -->
  <g fill="#C4724B">
    <rect x="85" y="250" width="40" height="12" rx="6"/>
    <rect x="135" y="252" width="40" height="12" rx="6"/>
  </g>
  <!-- Grill marks on hot dogs -->
  <g stroke="#8B4513" stroke-width="1.5" opacity="0.6">
    <line x1="95" y1="250" x2="95" y2="262"/>
    <line x1="107" y1="250" x2="107" y2="262"/>
    <line x1="119" y1="250" x2="119" y2="262"/>
    <line x1="145" y1="252" x2="145" y2="264"/>
    <line x1="157" y1="252" x2="157" y2="264"/>
    <line x1="169" y1="252" x2="169" y2="264"/>
  </g>
  
  <!-- Hamburger patties -->
  <g>
    <ellipse cx="185" cy="258" rx="16" ry="9" fill="#5C2E0E"/>
    <ellipse cx="185" cy="255" rx="15" ry="8" fill="#7B3F1A"/>
    <ellipse cx="100" cy="265" rx="15" ry="8" fill="#5C2E0E"/>
    <ellipse cx="100" cy="262" rx="14" ry="7" fill="#7B3F1A"/>
  </g>
  
  <!-- Smoke/steam -->
  <g fill="none" stroke="white" stroke-width="2.5" opacity="0.5">
    <path d="M110 230 Q118 218 110 205 Q102 192 110 180"/>
    <path d="M140 225 Q148 212 140 198 Q132 185 140 172"/>
    <path d="M170 228 Q178 215 170 202 Q162 188 170 175"/>
  </g>
  
  <!-- GRILLMASTER -->
  
  <!-- Shadow on grass -->
  <ellipse cx="305" cy="365" rx="45" ry="10" fill="#4A8535" opacity="0.5"/>
  
  <!-- Legs -->
  <path d="M280 300 Q275 330 278 360" fill="none" stroke="#D4A373" stroke-width="22" stroke-linecap="round"/>
  <path d="M320 300 Q325 330 322 360" fill="none" stroke="#D4A373" stroke-width="22" stroke-linecap="round"/>
  
  <!-- Shorts -->
  <path d="M265 280 L260 315 Q275 320 290 315 L290 280 Z" fill="#4A6B8A"/>
  <path d="M290 280 L290 315 Q305 320 320 315 L325 280 Z" fill="#4A6B8A"/>
  <path d="M260 278 Q292 270 330 278 L330 290 Q292 282 260 290 Z" fill="#3A5A7A"/>
  
  <!-- Shoes -->
  <path d="M265 358 Q260 365 265 370 L290 370 Q295 365 290 358" fill="#FDF6E3" stroke="#D4A017" stroke-width="2"/>
  <path d="M308 358 Q303 365 308 370 L333 370 Q338 365 333 358" fill="#FDF6E3" stroke="#D4A017" stroke-width="2"/>
  
  <!-- Torso - T-shirt -->
  <path d="M265 195 Q260 240 262 285 L328 285 Q330 240 325 195 Q295 185 265 195" fill="#D4A017"/>
  <!-- Shirt wrinkles/detail -->
  <path d="M280 230 Q285 250 280 270" fill="none" stroke="#B8900A" stroke-width="1.5" opacity="0.5"/>
  <path d="M310 235 Q305 255 310 275" fill="none" stroke="#B8900A" stroke-width="1.5" opacity="0.5"/>
  <!-- Collar -->
  <path d="M278 195 Q295 205 312 195" fill="none" stroke="#B8900A" stroke-width="3"/>
  
  <!-- BBQ text on shirt -->
  <text x="295" y="245" text-anchor="middle" font-family="Arial Black, sans-serif" font-size="22" font-weight="bold" fill="#6B3A1F">BBQ</text>
  
  <!-- Arms -->
  <!-- Left arm (relaxed) -->
  <path d="M262 200 Q245 215 240 245 Q238 265 245 280" fill="none" stroke="#D4A373" stroke-width="18" stroke-linecap="round"/>
  <!-- Right arm (holding spatula) -->
  <path d="M328 200 Q345 210 355 235 Q360 255 355 275" fill="none" stroke="#D4A373" stroke-width="18" stroke-linecap="round"/>
  
  <!-- Hands - simple clean circles -->
  <!-- Left hand -->
  <circle cx="247" cy="285" r="12" fill="#D4A373"/>
  <!-- Right hand holding spatula -->
  <circle cx="358" cy="280" r="12" fill="#D4A373"/>
  
  <!-- Spatula (positioned to the side) -->
  <rect x="352" y="275" width="6" height="35" fill="#6B3A1F" rx="2"/>
  <rect x="345" y="305" width="20" height="16" fill="#777" rx="3"/>
  <g fill="#555">
    <circle cx="350" cy="313" r="2"/>
    <circle cx="355" cy="313" r="2"/>
    <circle cx="360" cy="313" r="2"/>
  </g>
  
  <!-- Neck -->
  <rect x="285" y="175" width="20" height="22" fill="#D4A373" rx="5"/>
  
  <!-- Head -->
  <ellipse cx="295" cy="155" rx="32" ry="38" fill="#D4A373"/>
  
  <!-- Ear -->
  <ellipse cx="328" cy="158" rx="8" ry="12" fill="#D4A373"/>
  <ellipse cx="328" cy="158" rx="5" ry="8" fill="#C49363"/>
  
  <!-- Hair -->
  <path d="M262 145 Q265 110 295 105 Q330 108 335 140 Q338 150 335 160 Q330 145 295 140 Q270 142 265 155 Z" fill="#3A2515"/>
  <path d="M270 130 Q280 120 295 118 Q310 120 320 128" fill="none" stroke="#2A1A0A" stroke-width="2"/>
  <path d="M275 138 Q290 132 310 136" fill="none" stroke="#2A1A0A" stroke-width="1.5"/>
  
  <!-- Face details -->
  <!-- Eyebrows -->
  <path d="M275 140 Q283 136 290 140" fill="none" stroke="#3A2515" stroke-width="2.5" stroke-linecap="round"/>
  <path d="M300 140 Q307 136 315 140" fill="none" stroke="#3A2515" stroke-width="2.5" stroke-linecap="round"/>
  
  <!-- Eyes -->
  <ellipse cx="283" cy="152" rx="8" ry="6" fill="white"/>
  <ellipse cx="307" cy="152" rx="8" ry="6" fill="white"/>
  <circle cx="285" cy="153" r="4" fill="#4A3525"/>
  <circle cx="309" cy="153" r="4" fill="#4A3525"/>
  <circle cx="286" cy="152" r="1.5" fill="white"/>
  <circle cx="310" cy="152" r="1.5" fill="white"/>
  
  <!-- Nose -->
  <path d="M295 155 Q300 165 295 172 Q292 175 288 173" fill="none" stroke="#B8936A" stroke-width="2.5" stroke-linecap="round"/>
  
  <!-- Smile -->
  <path d="M280 180 Q295 195 310 180" fill="none" stroke="#8B5A3A" stroke-width="2.5" stroke-linecap="round"/>
  <path d="M275 178 Q278 182 280 180" fill="none" stroke="#B8936A" stroke-width="1.5" stroke-linecap="round"/>
  <path d="M315 178 Q312 182 310 180" fill="none" stroke="#B8936A" stroke-width="1.5" stroke-linecap="round"/>
  
  <!-- Cheeks -->
  <ellipse cx="272" cy="168" rx="6" ry="5" fill="#E8B090" opacity="0.4"/>
  <ellipse cx="318" cy="168" rx="6" ry="5" fill="#E8B090" opacity="0.4"/>
  
  <!-- Gold baseball cap (from v1) -->
  <path d="M258 138 Q260 120 295 115 Q332 118 338 135 Q340 142 338 148 L335 145 Q330 130 295 128 Q268 130 262 145 Z" fill="#F5C842"/>
  <ellipse cx="295" cy="143" rx="40" ry="10" fill="#F5C842"/>
  <!-- Cap brim -->
  <path d="M255 145 Q235 150 230 158 Q232 162 240 160 Q252 155 260 148 Z" fill="#D4A017"/>
  <!-- Cap button -->
  <circle cx="295" cy="118" r="4" fill="#B8900A"/>
  
</svg>